<mxfile host="app.diagrams.net" modified="2022-12-02T21:17:40.062Z" agent="5.0 (Windows NT 10.0; Win64; x64) AppleWebKit/537.36 (KHTML, like Gecko) Chrome/107.0.0.0 Safari/537.36" etag="csxoUcZEpWhAh_7RJ0wI" version="20.6.0" type="github" pages="3">
  <diagram id="o-PVrU7RFIEbedOI8Qb6" name="Current State">
    <mxGraphModel dx="1185" dy="655" grid="1" gridSize="10" guides="1" tooltips="1" connect="1" arrows="1" fold="1" page="1" pageScale="1" pageWidth="850" pageHeight="1100" math="0" shadow="0">
      <root>
        <mxCell id="0" />
        <mxCell id="1" parent="0" />
        <mxCell id="q3xTupe04iv9p-WDnLsS-1" value="" style="image;html=1;image=img/lib/clip_art/computers/Mainframe_128x128.png" parent="1" vertex="1">
          <mxGeometry x="140" y="360" width="150" height="120" as="geometry" />
        </mxCell>
        <mxCell id="q3xTupe04iv9p-WDnLsS-3" style="edgeStyle=orthogonalEdgeStyle;rounded=0;orthogonalLoop=1;jettySize=auto;html=1;entryX=0.5;entryY=0;entryDx=0;entryDy=0;" parent="1" source="q3xTupe04iv9p-WDnLsS-2" target="q3xTupe04iv9p-WDnLsS-1" edge="1">
          <mxGeometry relative="1" as="geometry" />
        </mxCell>
        <mxCell id="q3xTupe04iv9p-WDnLsS-2" value="&lt;span style=&quot;text-align: left;&quot;&gt;Customers Account Data&amp;nbsp;&lt;/span&gt;&lt;span style=&quot;text-align: left;&quot;&gt;&lt;br&gt;&lt;/span&gt;" style="sketch=0;html=1;dashed=0;whitespace=wrap;fillColor=#2875E2;strokeColor=#ffffff;points=[[0.005,0.63,0],[0.1,0.2,0],[0.9,0.2,0],[0.5,0,0],[0.995,0.63,0],[0.72,0.99,0],[0.5,1,0],[0.28,0.99,0]];verticalLabelPosition=bottom;align=center;verticalAlign=top;shape=mxgraph.kubernetes.icon;prIcon=api" parent="1" vertex="1">
          <mxGeometry x="340" y="290" width="50" height="48" as="geometry" />
        </mxCell>
        <mxCell id="q3xTupe04iv9p-WDnLsS-5" style="edgeStyle=orthogonalEdgeStyle;rounded=0;orthogonalLoop=1;jettySize=auto;html=1;entryX=0.5;entryY=1;entryDx=0;entryDy=0;" parent="1" source="q3xTupe04iv9p-WDnLsS-4" target="q3xTupe04iv9p-WDnLsS-1" edge="1">
          <mxGeometry relative="1" as="geometry" />
        </mxCell>
        <mxCell id="q3xTupe04iv9p-WDnLsS-4" value="&lt;span style=&quot;background-color: rgb(248, 249, 250); text-align: left;&quot;&gt;Customers Account Data&amp;nbsp;&lt;/span&gt;" style="aspect=fixed;html=1;points=[];align=center;image;fontSize=12;image=img/lib/azure2/general/Files.svg;" parent="1" vertex="1">
          <mxGeometry x="333" y="500" width="64" height="70" as="geometry" />
        </mxCell>
        <mxCell id="q3xTupe04iv9p-WDnLsS-6" value="&lt;div&gt;&lt;br&gt;&lt;/div&gt;&lt;div&gt;&lt;br&gt;&lt;/div&gt;&lt;div&gt;&lt;b&gt;Given:&amp;nbsp;&lt;/b&gt;&lt;/div&gt;&lt;div&gt;The following is the nature of back office data:&lt;/div&gt;&lt;div&gt;&lt;ol&gt;&lt;li&gt;Account Security Positions for customers&lt;/li&gt;&lt;li&gt;Tax Lot Data for customer Accounts&lt;/li&gt;&lt;/ol&gt;&lt;div&gt;&lt;b&gt;Assumptions:&lt;/b&gt;&lt;/div&gt;&lt;/div&gt;&lt;div&gt;&lt;ol&gt;&lt;li&gt;There are two end points&lt;/li&gt;&lt;ol&gt;&lt;li&gt;Account Security Positions&lt;/li&gt;&lt;ol&gt;&lt;li&gt;Sub set data as - Tax Lot Data for Position&lt;/li&gt;&lt;/ol&gt;&lt;/ol&gt;&lt;li&gt;https://www.tdameritrade.com/education/personal-finance/taxes/what-is-a-tax-lot.html&lt;/li&gt;&lt;ol&gt;&lt;li&gt;Each time you purchase a security, the new position is a distinct and separate tax lot — even if you already owned shares of the same security. (A tax lot is a record of a transaction and its tax implications, including the purchase date and number of shares.)&lt;/li&gt;&lt;/ol&gt;&lt;/ol&gt;&lt;div&gt;&lt;br&gt;&lt;/div&gt;&lt;/div&gt;" style="whiteSpace=wrap;html=1;shape=mxgraph.basic.document;align=left;" parent="1" vertex="1">
          <mxGeometry x="210" y="40" width="600" height="220" as="geometry" />
        </mxCell>
        <mxCell id="z6O1NbABLcKPI-ZB7ojw-1" value="XYZ Wealth Management System" style="aspect=fixed;html=1;points=[];align=center;image;fontSize=12;image=img/lib/azure2/app_services/App_Service_Domains.svg;" parent="1" vertex="1">
          <mxGeometry x="580" y="300" width="65" height="52" as="geometry" />
        </mxCell>
      </root>
    </mxGraphModel>
  </diagram>
  <diagram id="u9GVHIPmpUWJxlPkTdm8" name="Discussion">
    <mxGraphModel dx="1185" dy="655" grid="1" gridSize="10" guides="1" tooltips="1" connect="1" arrows="1" fold="1" page="1" pageScale="1" pageWidth="850" pageHeight="1100" math="0" shadow="0">
      <root>
        <mxCell id="0" />
        <mxCell id="1" parent="0" />
        <mxCell id="ALKuPea_s1evwIihJP0Q-1" value="Cross-Functional Flowchart" style="shape=table;childLayout=tableLayout;startSize=40;collapsible=0;recursiveResize=0;expand=0;" parent="1" vertex="1">
          <mxGeometry x="60" y="100" width="1420.0000000000005" height="810" as="geometry" />
        </mxCell>
        <mxCell id="ALKuPea_s1evwIihJP0Q-2" value="Functional Requirements" style="shape=tableRow;horizontal=0;swimlaneHead=0;swimlaneBody=0;top=0;left=0;bottom=0;right=0;dropTarget=0;fontStyle=0;fillColor=none;points=[[0,0.5],[1,0.5]];portConstraint=eastwest;startSize=40;collapsible=0;recursiveResize=0;expand=0;" parent="ALKuPea_s1evwIihJP0Q-1" vertex="1">
          <mxGeometry y="40" width="1420.0000000000005" height="460" as="geometry" />
        </mxCell>
        <mxCell id="ALKuPea_s1evwIihJP0Q-3" value="Current State" style="swimlane;swimlaneHead=0;swimlaneBody=0;fontStyle=0;connectable=0;fillColor=none;startSize=40;collapsible=0;recursiveResize=0;expand=0;" parent="ALKuPea_s1evwIihJP0Q-2" vertex="1">
          <mxGeometry x="40" width="660" height="460" as="geometry">
            <mxRectangle width="660" height="460" as="alternateBounds" />
          </mxGeometry>
        </mxCell>
        <mxCell id="4kDXwAbJmGrS9gbSMNsB-1" value="&lt;ol&gt;&lt;li&gt;&lt;span style=&quot;background-color: initial;&quot;&gt;Who are the end users of the application ?&lt;/span&gt;&lt;/li&gt;&lt;ul&gt;&lt;li&gt;&lt;span style=&quot;background-color: initial;&quot;&gt;Only the Advisers ?&amp;nbsp;&lt;/span&gt;&lt;/li&gt;&lt;li&gt;&lt;strike&gt;Or Customers will also have access to the back off systems ?&amp;nbsp;&lt;/strike&gt;&lt;/li&gt;&lt;li&gt;&lt;b&gt;Assumption: &lt;/b&gt;Since this is used by the back office assuming the application is only used by the advisers&lt;/li&gt;&lt;/ul&gt;&lt;li&gt;&lt;span style=&quot;background-color: initial;&quot;&gt;How many advisers are there?&amp;nbsp;&lt;/span&gt;&lt;/li&gt;&lt;ul&gt;&lt;li&gt;50K&lt;/li&gt;&lt;/ul&gt;&lt;li&gt;&lt;span style=&quot;background-color: initial;&quot;&gt;Current uses cases&amp;nbsp;of the application ?&amp;nbsp;&lt;/span&gt;&lt;/li&gt;&lt;ul&gt;&lt;li&gt;&lt;span style=&quot;background-color: initial;&quot;&gt;Manual harvesting of Tax Gain/Loss and would like to automate.&lt;/span&gt;&lt;/li&gt;&lt;/ul&gt;&lt;li&gt;Is the current back office systems service end points serves the real time data?&amp;nbsp;&lt;/li&gt;&lt;ul&gt;&lt;li&gt;&lt;br&gt;&lt;/li&gt;&lt;/ul&gt;&lt;li&gt;Is the vendor owns the data or only provide the services to process and serve the data?&amp;nbsp;&lt;/li&gt;&lt;ul&gt;&lt;li&gt;&lt;b&gt;Assumption: &lt;/b&gt;Vendor only provide the services and Data is owned by the XYZ Wealth Management.&amp;nbsp;&lt;/li&gt;&lt;/ul&gt;&lt;li&gt;&lt;span&gt;Is the realized and unrealized gains/losses for the customer data is available?&lt;/span&gt;&lt;br&gt;&lt;/li&gt;&lt;ul&gt;&lt;li&gt;&lt;span&gt;&lt;br&gt;&lt;/span&gt;&lt;/li&gt;&lt;/ul&gt;&lt;li&gt;&lt;span&gt;&lt;b style=&quot;&quot;&gt;&amp;nbsp;&lt;/b&gt;What is the use case&amp;nbsp;of the weekly files?&lt;div style=&quot;&quot;&gt;&lt;span style=&quot;background-color: initial;&quot;&gt;&lt;br&gt;&lt;/span&gt;&lt;/div&gt;&lt;span style=&quot;&quot;&gt;&amp;nbsp;&lt;/span&gt;&lt;br&gt;&lt;/span&gt;&lt;/li&gt;&lt;/ol&gt;&lt;div&gt;&lt;br&gt;&lt;/div&gt;" style="text;html=1;align=left;verticalAlign=middle;resizable=0;points=[];autosize=1;strokeColor=none;fillColor=none;" parent="ALKuPea_s1evwIihJP0Q-3" vertex="1">
          <mxGeometry y="60" width="660" height="300" as="geometry" />
        </mxCell>
        <mxCell id="ALKuPea_s1evwIihJP0Q-4" value="Future State " style="swimlane;swimlaneHead=0;swimlaneBody=0;fontStyle=0;connectable=0;fillColor=none;startSize=40;collapsible=0;recursiveResize=0;expand=0;" parent="ALKuPea_s1evwIihJP0Q-2" vertex="1">
          <mxGeometry x="700" width="720" height="460" as="geometry">
            <mxRectangle width="720" height="460" as="alternateBounds" />
          </mxGeometry>
        </mxCell>
        <mxCell id="4kDXwAbJmGrS9gbSMNsB-5" value="&lt;ol&gt;&lt;li style=&quot;text-align: left;&quot;&gt;What are the uses cases of the future solution?&lt;/li&gt;&lt;ul&gt;&lt;li style=&quot;text-align: left;&quot;&gt;&lt;span style=&quot;line-height: 107%;&quot;&gt;&lt;font color=&quot;#009900&quot; style=&quot;font-size: 12px;&quot;&gt;Existing:&amp;nbsp;&lt;/font&gt;&lt;/span&gt;&lt;/li&gt;&lt;ul&gt;&lt;li style=&quot;text-align: left;&quot;&gt;&lt;font color=&quot;#009900&quot;&gt;&lt;span style=&quot;line-height: 107%;&quot;&gt;&lt;font style=&quot;font-size: 12px;&quot;&gt;Account Security Positions for customers&lt;/font&gt;&lt;/span&gt;&lt;span style=&quot;font-size: 11pt; line-height: 107%;&quot;&gt;&amp;nbsp;&lt;/span&gt;&lt;/font&gt;&lt;/li&gt;&lt;li style=&quot;text-align: left;&quot;&gt;&lt;font color=&quot;#009900&quot; style=&quot;font-size: 12px;&quot;&gt;Tax Lot Data for the customer accounts&lt;/font&gt;&lt;/li&gt;&lt;/ul&gt;&lt;li style=&quot;text-align: left;&quot;&gt;&lt;font style=&quot;font-size: 12px;&quot;&gt;New&lt;/font&gt;&lt;/li&gt;&lt;ul&gt;&lt;li style=&quot;text-align: left;&quot;&gt;&lt;br&gt;&lt;/li&gt;&lt;li style=&quot;text-align: left;&quot;&gt;Rules to follow while calculating the Loss Harvesting Dash boards&lt;/li&gt;&lt;li style=&quot;text-align: left;&quot;&gt;&lt;font color=&quot;#009900&quot;&gt;Assumption: Wash sale out of scope for this discussion.&lt;/font&gt;&amp;nbsp;&amp;nbsp;&lt;/li&gt;&lt;/ul&gt;&lt;/ul&gt;&lt;li style=&quot;text-align: left;&quot;&gt;&amp;nbsp;Are you expecting Data Migration from existing mainframe systems?&lt;/li&gt;&lt;ul&gt;&lt;li style=&quot;text-align: left;&quot;&gt;&lt;br&gt;&lt;/li&gt;&lt;/ul&gt;&lt;li style=&quot;text-align: left;&quot;&gt;Where are you planning to deploy this App?&lt;/li&gt;&lt;ul&gt;&lt;li style=&quot;text-align: left;&quot;&gt;One Prem/Cloud&amp;nbsp;&lt;/li&gt;&lt;li style=&quot;text-align: left;&quot;&gt;&lt;b&gt;Assumption: &lt;font color=&quot;#009900&quot;&gt;Could&lt;/font&gt;&lt;/b&gt;&lt;/li&gt;&lt;/ul&gt;&lt;li style=&quot;text-align: left;&quot;&gt;Since this regulated data what are the measures to take while processing the data?&lt;/li&gt;&lt;li style=&quot;text-align: left;&quot;&gt;Do we need to maintain the access logs of the customer data?&lt;/li&gt;&lt;ul&gt;&lt;li style=&quot;text-align: left;&quot;&gt;&lt;br&gt;&lt;/li&gt;&lt;/ul&gt;&lt;li style=&quot;text-align: left;&quot;&gt;How does the advisor communicate with the customer to give the advisors?&lt;/li&gt;&lt;li style=&quot;text-align: left;&quot;&gt;Do we need to send Mail/email communications with the customers?&lt;/li&gt;&lt;li style=&quot;text-align: left;&quot;&gt;Are the services are Paid services or Free?&lt;/li&gt;&lt;ol&gt;&lt;li style=&quot;text-align: left;&quot;&gt;if they are paid billing requirements?&amp;nbsp;&amp;nbsp;&lt;/li&gt;&lt;/ol&gt;&lt;li style=&quot;text-align: left;&quot;&gt;Will advisor be accessing multiple customer data at the same time?&amp;nbsp;&lt;/li&gt;&lt;ul&gt;&lt;li style=&quot;text-align: left;&quot;&gt;&lt;br&gt;&lt;/li&gt;&lt;/ul&gt;&lt;li style=&quot;text-align: left;&quot;&gt;Are you looking to consider integration with any ratings data provided by the market analysts before suggest to sell a position?&amp;nbsp;&lt;/li&gt;&lt;/ol&gt;" style="text;html=1;align=center;verticalAlign=middle;resizable=0;points=[];autosize=1;strokeColor=none;fillColor=none;" parent="ALKuPea_s1evwIihJP0Q-4" vertex="1">
          <mxGeometry x="-10" y="45" width="740" height="370" as="geometry" />
        </mxCell>
        <mxCell id="ALKuPea_s1evwIihJP0Q-5" value="Non Functional Requirements(NFR)" style="shape=tableRow;horizontal=0;swimlaneHead=0;swimlaneBody=0;top=0;left=0;bottom=0;right=0;dropTarget=0;fontStyle=0;fillColor=none;points=[[0,0.5],[1,0.5]];portConstraint=eastwest;startSize=40;collapsible=0;recursiveResize=0;expand=0;" parent="ALKuPea_s1evwIihJP0Q-1" vertex="1">
          <mxGeometry y="500" width="1420.0000000000005" height="310" as="geometry" />
        </mxCell>
        <mxCell id="ALKuPea_s1evwIihJP0Q-6" value="" style="swimlane;swimlaneHead=0;swimlaneBody=0;fontStyle=0;connectable=0;fillColor=none;startSize=0;collapsible=0;recursiveResize=0;expand=0;" parent="ALKuPea_s1evwIihJP0Q-5" vertex="1">
          <mxGeometry x="40" width="660" height="310" as="geometry">
            <mxRectangle width="660" height="310" as="alternateBounds" />
          </mxGeometry>
        </mxCell>
        <mxCell id="ALKuPea_s1evwIihJP0Q-7" value="" style="swimlane;swimlaneHead=0;swimlaneBody=0;fontStyle=0;connectable=0;fillColor=none;startSize=0;collapsible=0;recursiveResize=0;expand=0;" parent="ALKuPea_s1evwIihJP0Q-5" vertex="1">
          <mxGeometry x="700" width="720" height="310" as="geometry">
            <mxRectangle width="720" height="310" as="alternateBounds" />
          </mxGeometry>
        </mxCell>
        <mxCell id="4kDXwAbJmGrS9gbSMNsB-6" value="&lt;ol&gt;&lt;li style=&quot;text-align: left;&quot;&gt;&lt;span style=&quot;&quot;&gt;What are the peak loads ?&lt;/span&gt;&lt;/li&gt;&lt;li style=&quot;text-align: left;&quot;&gt;&lt;span style=&quot;&quot;&gt;Where the Advisors are located ?&amp;nbsp;&amp;nbsp;&lt;/span&gt;&lt;/li&gt;&lt;/ol&gt;" style="text;html=1;align=center;verticalAlign=middle;resizable=0;points=[];autosize=1;strokeColor=none;fillColor=none;" parent="ALKuPea_s1evwIihJP0Q-7" vertex="1">
          <mxGeometry x="10" y="5" width="250" height="70" as="geometry" />
        </mxCell>
        <mxCell id="ALKuPea_s1evwIihJP0Q-8" value="" style="shape=singleArrow;whiteSpace=wrap;html=1;" parent="1" vertex="1">
          <mxGeometry x="1550" y="440" width="100" height="60" as="geometry" />
        </mxCell>
        <mxCell id="ALKuPea_s1evwIihJP0Q-17" value="Key takeaways" style="shape=table;childLayout=tableLayout;startSize=40;collapsible=0;recursiveResize=0;expand=0;" parent="1" vertex="1">
          <mxGeometry x="1740" y="100" width="290" height="820" as="geometry" />
        </mxCell>
        <mxCell id="ALKuPea_s1evwIihJP0Q-18" value="Functional Requirements" style="shape=tableRow;horizontal=0;swimlaneHead=0;swimlaneBody=0;top=0;left=0;bottom=0;right=0;dropTarget=0;fontStyle=0;fillColor=none;points=[[0,0.5],[1,0.5]];portConstraint=eastwest;startSize=40;collapsible=0;recursiveResize=0;expand=0;" parent="ALKuPea_s1evwIihJP0Q-17" vertex="1">
          <mxGeometry y="40" width="290" height="460" as="geometry" />
        </mxCell>
        <mxCell id="ALKuPea_s1evwIihJP0Q-19" value="MVP" style="swimlane;swimlaneHead=0;swimlaneBody=0;fontStyle=0;connectable=0;fillColor=none;startSize=40;collapsible=0;recursiveResize=0;expand=0;" parent="ALKuPea_s1evwIihJP0Q-18" vertex="1">
          <mxGeometry x="40" width="250" height="460" as="geometry">
            <mxRectangle width="250" height="460" as="alternateBounds" />
          </mxGeometry>
        </mxCell>
        <mxCell id="ALKuPea_s1evwIihJP0Q-20" value="Non Functional Requirements(NFR)" style="shape=tableRow;horizontal=0;swimlaneHead=0;swimlaneBody=0;top=0;left=0;bottom=0;right=0;dropTarget=0;fontStyle=0;fillColor=none;points=[[0,0.5],[1,0.5]];portConstraint=eastwest;startSize=40;collapsible=0;recursiveResize=0;expand=0;" parent="ALKuPea_s1evwIihJP0Q-17" vertex="1">
          <mxGeometry y="500" width="290" height="320" as="geometry" />
        </mxCell>
        <mxCell id="ALKuPea_s1evwIihJP0Q-21" value="" style="swimlane;swimlaneHead=0;swimlaneBody=0;fontStyle=0;connectable=0;fillColor=none;startSize=0;collapsible=0;recursiveResize=0;expand=0;" parent="ALKuPea_s1evwIihJP0Q-20" vertex="1">
          <mxGeometry x="40" width="250" height="320" as="geometry">
            <mxRectangle width="250" height="320" as="alternateBounds" />
          </mxGeometry>
        </mxCell>
      </root>
    </mxGraphModel>
  </diagram>
  <diagram id="PaW2ef6qxUGl2FeUnJ2f" name="Proposed Solution">
    <mxGraphModel dx="1422" dy="786" grid="1" gridSize="10" guides="1" tooltips="1" connect="1" arrows="1" fold="1" page="1" pageScale="1" pageWidth="850" pageHeight="1100" math="0" shadow="0">
      <root>
        <mxCell id="0" />
        <mxCell id="1" parent="0" />
      </root>
    </mxGraphModel>
  </diagram>
</mxfile>
